<?xml version="1.0" encoding="utf-8"?>
<!-- Generator: Adobe Illustrator 19.2.1, SVG Export Plug-In . SVG Version: 6.00 Build 0)  -->
<svg version="1.1" id="layer" xmlns="http://www.w3.org/2000/svg" xmlns:xlink="http://www.w3.org/1999/xlink" x="0px" y="0px"
	 viewBox="0 0 652 652" style="enable-background:new 0 0 652 652;" xml:space="preserve">
<style type="text/css">
	.st0{fill:#659F34;}
	.st1{fill:#EB7529;}
	.st2{fill:#499FD4;}
</style>
<g>
	<path class="st0" d="M78.9,411.8c0,0,37-204.2,205-77.6C283.9,334.2,164.4,278.4,78.9,411.8"/>
	<path class="st1" d="M233.2,235.3c0,0-61.7,155.8-213,50.4C20.2,285.7,128.4,344.4,233.2,235.3"/>
	<path class="st2" d="M32.3,402.1c0,0,123.4-191,259.4-86.3C291.7,315.8,150.3,272.4,32.3,402.1"/>
	<polygon points="319.1,260.6 343.1,260.6 366.6,322.2 366.9,322.2 390.5,260.6 413.1,260.6 378.5,348.5 355,348.5 	"/>
	<rect x="422.2" y="260.6" width="22" height="87.9"/>
	<path d="M454.7,279.3v-18.7h18.1v-25.5h22v25.5H519v18.7h-24.2v38.5c0,8.8,2.6,14.3,12.3,14.3c3.8,0,9.2-0.7,11.9-2.7v18.5
		c-4.6,2.2-12.3,2.9-17.4,2.9c-23.3,0-28.8-10.4-28.8-31.1v-40.3H454.7z"/>
	<path d="M572.4,258.4c26.6,0,47.8,18.5,47.8,46.1c0,27.7-21.2,46.1-47.8,46.1c-26.6,0-47.8-18.5-47.8-46.1
		C524.6,276.9,545.8,258.4,572.4,258.4 M572.4,331c16.1,0,25.8-12.6,25.8-26.4c0-13.7-9.7-26.4-25.8-26.4
		c-16.1,0-25.8,12.6-25.8,26.4C546.6,318.3,556.3,331,572.4,331"/>
</g>
</svg>
